{
    "asset" : {
        "generator" : "Khronos glTF Blender I/O v1.7.33",
        "version" : "2.0"
    },
    "scene" : 0,
    "scenes" : [
        {
            "name" : "Scene",
            "nodes" : [
                0,
                1,
                2,
                3,
                4
            ]
        }
    ],
    "nodes" : [
        {
            "mesh" : 0,
            "name" : "Object018",
            "scale" : [
                0.0010000000474974513,
                0.0010000000474974513,
                0.0010000000474974513
            ],
            "translation" : [
                0,
                0.6712437272071838,
                0
            ]
        },
        {
            "mesh" : 1,
            "name" : "Object019",
            "scale" : [
                0.0010000000474974513,
                0.0010000000474974513,
                0.0010000000474974513
            ],
            "translation" : [
                -2.143521547317505,
                0.6712437868118286,
                0
            ]
        },
        {
            "mesh" : 2,
            "name" : "Object020",
            "scale" : [
                0.0010000000474974513,
                0.0010000000474974513,
                0.0010000000474974513
            ],
            "translation" : [
                -2.184563159942627,
                0.6712437868118286,
                0
            ]
        },
        {
            "mesh" : 3,
            "name" : "Object021",
            "scale" : [
                0.0010000000474974513,
                0.0010000000474974513,
                0.0010000000474974513
            ],
            "translation" : [
                2.1375691890716553,
                0.6712437868118286,
                0
            ]
        },
        {
            "mesh" : 4,
            "name" : "Object022",
            "scale" : [
                0.0010000000474974513,
                0.0010000000474974513,
                0.0010000000474974513
            ],
            "translation" : [
                3.3958566188812256,
                0.6712437868118286,
                0
            ]
        }
    ],
    "meshes" : [
        {
            "name" : "\u7f51\u683c",
            "primitives" : [
                {
                    "attributes" : {
                        "POSITION" : 0,
                        "NORMAL" : 1,
                        "TEXCOORD_0" : 2
                    },
                    "indices" : 3
                }
            ]
        },
        {
            "name" : "\u7f51\u683c.001",
            "primitives" : [
                {
                    "attributes" : {
                        "POSITION" : 4,
                        "NORMAL" : 5,
                        "TEXCOORD_0" : 6
                    },
                    "indices" : 7
                }
            ]
        },
        {
            "name" : "\u7f51\u683c.002",
            "primitives" : [
                {
                    "attributes" : {
                        "POSITION" : 8,
                        "NORMAL" : 9,
                        "TEXCOORD_0" : 10
                    },
                    "indices" : 11
                }
            ]
        },
        {
            "name" : "\u7f51\u683c.003",
            "primitives" : [
                {
                    "attributes" : {
                        "POSITION" : 12,
                        "NORMAL" : 13,
                        "TEXCOORD_0" : 14
                    },
                    "indices" : 15
                }
            ]
        },
        {
            "name" : "\u7f51\u683c.004",
            "primitives" : [
                {
                    "attributes" : {
                        "POSITION" : 16,
                        "NORMAL" : 17,
                        "TEXCOORD_0" : 18
                    },
                    "indices" : 19
                }
            ]
        }
    ],
    "accessors" : [
        {
            "bufferView" : 0,
            "componentType" : 5126,
            "count" : 1385,
            "max" : [
                606.0826416015625,
                483.3548889160156,
                1992.167724609375
            ],
            "min" : [
                -606.0826416015625,
                -483.35491943359375,
                -1992.167724609375
            ],
            "type" : "VEC3"
        },
        {
            "bufferView" : 1,
            "componentType" : 5126,
            "count" : 1385,
            "type" : "VEC3"
        },
        {
            "bufferView" : 2,
            "componentType" : 5126,
            "count" : 1385,
            "type" : "VEC2"
        },
        {
            "bufferView" : 3,
            "componentType" : 5123,
            "count" : 1800,
            "type" : "SCALAR"
        },
        {
            "bufferView" : 4,
            "componentType" : 5126,
            "count" : 106,
            "max" : [
                2761.672119140625,
                -248.46363830566406,
                -1027.3187255859375
            ],
            "min" : [
                2588.08447265625,
                -671.2435302734375,
                -1471.8558349609375
            ],
            "type" : "VEC3"
        },
        {
            "bufferView" : 5,
            "componentType" : 5126,
            "count" : 106,
            "type" : "VEC3"
        },
        {
            "bufferView" : 6,
            "componentType" : 5126,
            "count" : 106,
            "type" : "VEC2"
        },
        {
            "bufferView" : 7,
            "componentType" : 5123,
            "count" : 228,
            "type" : "SCALAR"
        },
        {
            "bufferView" : 8,
            "componentType" : 5126,
            "count" : 103,
            "max" : [
                2804.252197265625,
                -248.46392822265625,
                1522.1865234375
            ],
            "min" : [
                2630.66455078125,
                -671.2438354492188,
                1077.6494140625
            ],
            "type" : "VEC3"
        },
        {
            "bufferView" : 9,
            "componentType" : 5126,
            "count" : 103,
            "type" : "VEC3"
        },
        {
            "bufferView" : 10,
            "componentType" : 5126,
            "count" : 103,
            "type" : "VEC2"
        },
        {
            "bufferView" : 11,
            "componentType" : 5123,
            "count" : 228,
            "type" : "SCALAR"
        },
        {
            "bufferView" : 12,
            "componentType" : 5126,
            "count" : 120,
            "max" : [
                -2583.09765625,
                -248.46363830566406,
                -1027.3187255859375
            ],
            "min" : [
                -2756.685302734375,
                -671.2435302734375,
                -1471.8558349609375
            ],
            "type" : "VEC3"
        },
        {
            "bufferView" : 13,
            "componentType" : 5126,
            "count" : 120,
            "type" : "VEC3"
        },
        {
            "bufferView" : 14,
            "componentType" : 5126,
            "count" : 120,
            "type" : "VEC2"
        },
        {
            "bufferView" : 15,
            "componentType" : 5123,
            "count" : 228,
            "type" : "SCALAR"
        },
        {
            "bufferView" : 16,
            "componentType" : 5126,
            "count" : 102,
            "max" : [
                -3842.521484375,
                -248.46392822265625,
                1522.1865234375
            ],
            "min" : [
                -4016.109130859375,
                -671.2438354492188,
                1077.6494140625
            ],
            "type" : "VEC3"
        },
        {
            "bufferView" : 17,
            "componentType" : 5126,
            "count" : 102,
            "type" : "VEC3"
        },
        {
            "bufferView" : 18,
            "componentType" : 5126,
            "count" : 102,
            "type" : "VEC2"
        },
        {
            "bufferView" : 19,
            "componentType" : 5123,
            "count" : 228,
            "type" : "SCALAR"
        }
    ],
    "bufferViews" : [
        {
            "buffer" : 0,
            "byteLength" : 16620,
            "byteOffset" : 0
        },
        {
            "buffer" : 0,
            "byteLength" : 16620,
            "byteOffset" : 16620
        },
        {
            "buffer" : 0,
            "byteLength" : 11080,
            "byteOffset" : 33240
        },
        {
            "buffer" : 0,
            "byteLength" : 3600,
            "byteOffset" : 44320
        },
        {
            "buffer" : 0,
            "byteLength" : 1272,
            "byteOffset" : 47920
        },
        {
            "buffer" : 0,
            "byteLength" : 1272,
            "byteOffset" : 49192
        },
        {
            "buffer" : 0,
            "byteLength" : 848,
            "byteOffset" : 50464
        },
        {
            "buffer" : 0,
            "byteLength" : 456,
            "byteOffset" : 51312
        },
        {
            "buffer" : 0,
            "byteLength" : 1236,
            "byteOffset" : 51768
        },
        {
            "buffer" : 0,
            "byteLength" : 1236,
            "byteOffset" : 53004
        },
        {
            "buffer" : 0,
            "byteLength" : 824,
            "byteOffset" : 54240
        },
        {
            "buffer" : 0,
            "byteLength" : 456,
            "byteOffset" : 55064
        },
        {
            "buffer" : 0,
            "byteLength" : 1440,
            "byteOffset" : 55520
        },
        {
            "buffer" : 0,
            "byteLength" : 1440,
            "byteOffset" : 56960
        },
        {
            "buffer" : 0,
            "byteLength" : 960,
            "byteOffset" : 58400
        },
        {
            "buffer" : 0,
            "byteLength" : 456,
            "byteOffset" : 59360
        },
        {
            "buffer" : 0,
            "byteLength" : 1224,
            "byteOffset" : 59816
        },
        {
            "buffer" : 0,
            "byteLength" : 1224,
            "byteOffset" : 61040
        },
        {
            "buffer" : 0,
            "byteLength" : 816,
            "byteOffset" : 62264
        },
        {
            "buffer" : 0,
            "byteLength" : 456,
            "byteOffset" : 63080
        }
    ],
    "buffers" : [
        {
            "byteLength" : 63536,
            "uri" : "data:application/octet-stream;base64,"
        }
    ]
}
