{
    "asset" : {
        "generator" : "Khronos glTF Blender I/O v1.7.33",
        "version" : "2.0"
    },
    "scene" : 0,
    "scenes" : [
        {
            "name" : "Scene",
            "nodes" : [
                0,
                1
            ]
        }
    ],
    "nodes" : [
        {
            "mesh" : 0,
            "name" : "Dumpsters_v1_empty",
            "translation" : [
                0.020911216735839844,
                0.8065738677978516,
                -1.0800385475158691
            ]
        },
        {
            "mesh" : 1,
            "name" : "Dumpsters_v1_garbadge",
            "translation" : [
                0.020911216735839844,
                0.8065738677978516,
                1.0289397239685059
            ]
        }
    ],
    "meshes" : [
        {
            "name" : "\u7f51\u683c.010",
            "primitives" : [
                {
                    "attributes" : {
                        "POSITION" : 0,
                        "NORMAL" : 1,
                        "TEXCOORD_0" : 2
                    },
                    "indices" : 3
                }
            ]
        },
        {
            "name" : "\u7f51\u683c.011",
            "primitives" : [
                {
                    "attributes" : {
                        "POSITION" : 4,
                        "NORMAL" : 5,
                        "TEXCOORD_0" : 6
                    },
                    "indices" : 7
                }
            ]
        }
    ],
    "accessors" : [
        {
            "bufferView" : 0,
            "componentType" : 5126,
            "count" : 78,
            "max" : [
                2.4683613777160645,
                0.8065751791000366,
                0.8815422058105469
            ],
            "min" : [
                -2.4683611392974854,
                -0.8065751791000366,
                -0.8815422058105469
            ],
            "type" : "VEC3"
        },
        {
            "bufferView" : 1,
            "componentType" : 5126,
            "count" : 78,
            "type" : "VEC3"
        },
        {
            "bufferView" : 2,
            "componentType" : 5126,
            "count" : 78,
            "type" : "VEC2"
        },
        {
            "bufferView" : 3,
            "componentType" : 5123,
            "count" : 126,
            "type" : "SCALAR"
        },
        {
            "bufferView" : 4,
            "componentType" : 5126,
            "count" : 123,
            "max" : [
                2.4683613777160645,
                0.9508712291717529,
                0.8815422058105469
            ],
            "min" : [
                -2.4683611392974854,
                -0.8065751791000366,
                -0.8815422058105469
            ],
            "type" : "VEC3"
        },
        {
            "bufferView" : 5,
            "componentType" : 5126,
            "count" : 123,
            "type" : "VEC3"
        },
        {
            "bufferView" : 6,
            "componentType" : 5126,
            "count" : 123,
            "type" : "VEC2"
        },
        {
            "bufferView" : 7,
            "componentType" : 5123,
            "count" : 318,
            "type" : "SCALAR"
        }
    ],
    "bufferViews" : [
        {
            "buffer" : 0,
            "byteLength" : 936,
            "byteOffset" : 0
        },
        {
            "buffer" : 0,
            "byteLength" : 936,
            "byteOffset" : 936
        },
        {
            "buffer" : 0,
            "byteLength" : 624,
            "byteOffset" : 1872
        },
        {
            "buffer" : 0,
            "byteLength" : 252,
            "byteOffset" : 2496
        },
        {
            "buffer" : 0,
            "byteLength" : 1476,
            "byteOffset" : 2748
        },
        {
            "buffer" : 0,
            "byteLength" : 1476,
            "byteOffset" : 4224
        },
        {
            "buffer" : 0,
            "byteLength" : 984,
            "byteOffset" : 5700
        },
        {
            "buffer" : 0,
            "byteLength" : 636,
            "byteOffset" : 6684
        }
    ],
    "buffers" : [
        {
            "byteLength" : 7320,
            "uri" : "data:application/octet-stream;base64,"
        }
    ]
}
