{
    "asset" : {
        "generator" : "Khronos glTF Blender I/O v1.7.33",
        "version" : "2.0"
    },
    "scene" : 0,
    "scenes" : [
        {
            "name" : "Scene",
            "nodes" : [
                0
            ]
        }
    ],
    "nodes" : [
        {
            "mesh" : 0,
            "name" : "Hangar_v6_2"
        }
    ],
    "meshes" : [
        {
            "name" : "\u7f51\u683c.007",
            "primitives" : [
                {
                    "attributes" : {
                        "POSITION" : 0,
                        "NORMAL" : 1,
                        "TEXCOORD_0" : 2
                    },
                    "indices" : 3
                }
            ]
        }
    ],
    "accessors" : [
        {
            "bufferView" : 0,
            "componentType" : 5126,
            "count" : 1543,
            "max" : [
                19.777708053588867,
                10.666698455810547,
                8.329620361328125
            ],
            "min" : [
                -17.75623893737793,
                0.0005035400390625,
                -6.3809814453125
            ],
            "type" : "VEC3"
        },
        {
            "bufferView" : 1,
            "componentType" : 5126,
            "count" : 1543,
            "type" : "VEC3"
        },
        {
            "bufferView" : 2,
            "componentType" : 5126,
            "count" : 1543,
            "type" : "VEC2"
        },
        {
            "bufferView" : 3,
            "componentType" : 5123,
            "count" : 2334,
            "type" : "SCALAR"
        }
    ],
    "bufferViews" : [
        {
            "buffer" : 0,
            "byteLength" : 18516,
            "byteOffset" : 0
        },
        {
            "buffer" : 0,
            "byteLength" : 18516,
            "byteOffset" : 18516
        },
        {
            "buffer" : 0,
            "byteLength" : 12344,
            "byteOffset" : 37032
        },
        {
            "buffer" : 0,
            "byteLength" : 4668,
            "byteOffset" : 49376
        }
    ],
    "buffers" : [
        {
            "byteLength" : 54044,
            "uri" : "data:application/octet-stream;base64,"
        }
    ]
}
