{
    "asset" : {
        "generator" : "Khronos glTF Blender I/O v1.7.33",
        "version" : "2.0"
    },
    "scene" : 0,
    "scenes" : [
        {
            "name" : "Scene",
            "nodes" : [
                0,
                1,
                2,
                3,
                4
            ]
        }
    ],
    "nodes" : [
        {
            "mesh" : 0,
            "name" : "police_car",
            "scale" : [
                0.0010000000474974513,
                0.0010000000474974513,
                0.0010000000474974513
            ],
            "translation" : [
                0,
                0.42301204800605774,
                0
            ]
        },
        {
            "mesh" : 1,
            "name" : "Object005",
            "scale" : [
                0.0010000000474974513,
                0.0010000000474974513,
                0.0010000000474974513
            ],
            "translation" : [
                0.3943868577480316,
                0.15308354794979095,
                0.7745832204818726
            ]
        },
        {
            "mesh" : 2,
            "name" : "Object015",
            "scale" : [
                0.0010000000474974513,
                0.0010000000474974513,
                0.0010000000474974513
            ],
            "translation" : [
                -0.3914602994918823,
                0.15308354794979095,
                0.7745832204818726
            ]
        },
        {
            "mesh" : 3,
            "name" : "Object016",
            "scale" : [
                0.0010000000474974513,
                0.0010000000474974513,
                0.0010000000474974513
            ],
            "translation" : [
                -0.3914602994918823,
                0.15308354794979095,
                -0.7503719329833984
            ]
        },
        {
            "mesh" : 4,
            "name" : "Object017",
            "scale" : [
                0.0010000000474974513,
                0.0010000000474974513,
                0.0010000000474974513
            ],
            "translation" : [
                0.3943868577480316,
                0.15308354794979095,
                -0.7503719925880432
            ]
        }
    ],
    "meshes" : [
        {
            "name" : "\u7f51\u683c",
            "primitives" : [
                {
                    "attributes" : {
                        "POSITION" : 0,
                        "NORMAL" : 1,
                        "TEXCOORD_0" : 2
                    },
                    "indices" : 3
                }
            ]
        },
        {
            "name" : "\u7f51\u683c.001",
            "primitives" : [
                {
                    "attributes" : {
                        "POSITION" : 4,
                        "NORMAL" : 5,
                        "TEXCOORD_0" : 6
                    },
                    "indices" : 7
                }
            ]
        },
        {
            "name" : "\u7f51\u683c.002",
            "primitives" : [
                {
                    "attributes" : {
                        "POSITION" : 8,
                        "NORMAL" : 9,
                        "TEXCOORD_0" : 10
                    },
                    "indices" : 11
                }
            ]
        },
        {
            "name" : "\u7f51\u683c.003",
            "primitives" : [
                {
                    "attributes" : {
                        "POSITION" : 12,
                        "NORMAL" : 13,
                        "TEXCOORD_0" : 14
                    },
                    "indices" : 11
                }
            ]
        },
        {
            "name" : "\u7f51\u683c.004",
            "primitives" : [
                {
                    "attributes" : {
                        "POSITION" : 15,
                        "NORMAL" : 16,
                        "TEXCOORD_0" : 17
                    },
                    "indices" : 7
                }
            ]
        }
    ],
    "accessors" : [
        {
            "bufferView" : 0,
            "componentType" : 5126,
            "count" : 1105,
            "max" : [
                503.3533020019531,
                293.58349609375,
                1169.7401123046875
            ],
            "min" : [
                -503.3538818359375,
                -293.5835266113281,
                -1169.7401123046875
            ],
            "type" : "VEC3"
        },
        {
            "bufferView" : 1,
            "componentType" : 5126,
            "count" : 1105,
            "type" : "VEC3"
        },
        {
            "bufferView" : 2,
            "componentType" : 5126,
            "count" : 1105,
            "type" : "VEC2"
        },
        {
            "bufferView" : 3,
            "componentType" : 5123,
            "count" : 1350,
            "type" : "SCALAR"
        },
        {
            "bufferView" : 4,
            "componentType" : 5126,
            "count" : 120,
            "max" : [
                62.85400390625,
                153.08294677734375,
                160.9599609375
            ],
            "min" : [
                -62.8544921875,
                -153.08360290527344,
                -160.96142578125
            ],
            "type" : "VEC3"
        },
        {
            "bufferView" : 5,
            "componentType" : 5126,
            "count" : 120,
            "type" : "VEC3"
        },
        {
            "bufferView" : 6,
            "componentType" : 5126,
            "count" : 120,
            "type" : "VEC2"
        },
        {
            "bufferView" : 7,
            "componentType" : 5123,
            "count" : 228,
            "type" : "SCALAR"
        },
        {
            "bufferView" : 8,
            "componentType" : 5126,
            "count" : 116,
            "max" : [
                62.854736328125,
                153.08294677734375,
                160.9609375
            ],
            "min" : [
                -62.853759765625,
                -153.08360290527344,
                -160.96044921875
            ],
            "type" : "VEC3"
        },
        {
            "bufferView" : 9,
            "componentType" : 5126,
            "count" : 116,
            "type" : "VEC3"
        },
        {
            "bufferView" : 10,
            "componentType" : 5126,
            "count" : 116,
            "type" : "VEC2"
        },
        {
            "bufferView" : 11,
            "componentType" : 5123,
            "count" : 228,
            "type" : "SCALAR"
        },
        {
            "bufferView" : 12,
            "componentType" : 5126,
            "count" : 116,
            "max" : [
                62.854736328125,
                153.08294677734375,
                160.9609375
            ],
            "min" : [
                -62.853759765625,
                -153.08360290527344,
                -160.96044921875
            ],
            "type" : "VEC3"
        },
        {
            "bufferView" : 13,
            "componentType" : 5126,
            "count" : 116,
            "type" : "VEC3"
        },
        {
            "bufferView" : 14,
            "componentType" : 5126,
            "count" : 116,
            "type" : "VEC2"
        },
        {
            "bufferView" : 15,
            "componentType" : 5126,
            "count" : 120,
            "max" : [
                62.85400390625,
                153.08294677734375,
                160.9599609375
            ],
            "min" : [
                -62.8544921875,
                -153.08360290527344,
                -160.96142578125
            ],
            "type" : "VEC3"
        },
        {
            "bufferView" : 16,
            "componentType" : 5126,
            "count" : 120,
            "type" : "VEC3"
        },
        {
            "bufferView" : 17,
            "componentType" : 5126,
            "count" : 120,
            "type" : "VEC2"
        }
    ],
    "bufferViews" : [
        {
            "buffer" : 0,
            "byteLength" : 13260,
            "byteOffset" : 0
        },
        {
            "buffer" : 0,
            "byteLength" : 13260,
            "byteOffset" : 13260
        },
        {
            "buffer" : 0,
            "byteLength" : 8840,
            "byteOffset" : 26520
        },
        {
            "buffer" : 0,
            "byteLength" : 2700,
            "byteOffset" : 35360
        },
        {
            "buffer" : 0,
            "byteLength" : 1440,
            "byteOffset" : 38060
        },
        {
            "buffer" : 0,
            "byteLength" : 1440,
            "byteOffset" : 39500
        },
        {
            "buffer" : 0,
            "byteLength" : 960,
            "byteOffset" : 40940
        },
        {
            "buffer" : 0,
            "byteLength" : 456,
            "byteOffset" : 41900
        },
        {
            "buffer" : 0,
            "byteLength" : 1392,
            "byteOffset" : 42356
        },
        {
            "buffer" : 0,
            "byteLength" : 1392,
            "byteOffset" : 43748
        },
        {
            "buffer" : 0,
            "byteLength" : 928,
            "byteOffset" : 45140
        },
        {
            "buffer" : 0,
            "byteLength" : 456,
            "byteOffset" : 46068
        },
        {
            "buffer" : 0,
            "byteLength" : 1392,
            "byteOffset" : 46524
        },
        {
            "buffer" : 0,
            "byteLength" : 1392,
            "byteOffset" : 47916
        },
        {
            "buffer" : 0,
            "byteLength" : 928,
            "byteOffset" : 49308
        },
        {
            "buffer" : 0,
            "byteLength" : 1440,
            "byteOffset" : 50236
        },
        {
            "buffer" : 0,
            "byteLength" : 1440,
            "byteOffset" : 51676
        },
        {
            "buffer" : 0,
            "byteLength" : 960,
            "byteOffset" : 53116
        }
    ],
    "buffers" : [
        {
            "byteLength" : 54076,
            "uri" : "data:application/octet-stream;base64,"
        }
    ]
}
